<?xml version='1.0' encoding='UTF-8'?>
<svg xmlns="http://www.w3.org/2000/svg" version="1.1" viewBox="0 0 120 120">
  <title>cute</title>
  <desc>GridJoy grouped face asset for cute</desc>
  <g transform="scale(0.095693779904)"><path fill="none" stroke="black" stroke-width="1" d="M267.7 805.5a105 105 0 0 1 64.3 15c9.5 6 19.5 18.5 18.8 30.5-.7 13.3-9.2 23-19.8 30-17.8 11.8-39.1 14.2-60 14-18.4-.2-41.4-7.4-55-20-9.4-9-15-21.2-10.4-34 8.6-24.6 39-32.6 62.1-35.5m705 0a103 103 0 0 1 65.3 15.2c12.5 8.2 21.2 22 17 37.3a42 42 0 0 1-19 23.3c-18 11.6-38.2 13.9-59 13.7a91 91 0 0 1-55-19.4c-11.7-10.2-16-25.6-8.6-39.6 10.8-20.4 38.3-27.6 59.3-30.5m-709.7 26c-4.6 1.9-6 4.6-9 8.5l-12.7 17c-2.5 5.1 0 12.2 6.7 10.2 3.3-1 5.8-4.6 7.9-7.2 2.8-3.7 12.8-15.7 14.2-19 2.4-5.8-1-9.8-7-9.5m42 .2c-5.6 1.2-6.7 4-10 8.3l-13.6 18c-3 6 .5 11 5.6 10.5 3.3-.4 5.8-3.1 7.8-5.5l15.6-21c2.8-5.5.4-9.3-5.4-10.3m664-.2c-6.4 2.5-10.6 10.2-14.6 15.5-2.3 2.9-6.4 7.8-8 11a6.4 6.4 0 0 0 7.6 9.2c2.9-1 5.1-4 7-6.2 3.2-4 14.7-18 15.5-22 1.1-5.5-2.6-7.8-7.5-7.5m42 .3c-7.3 1.1-12.1 10.8-16.5 16.2-2.1 2.8-5 6-6.7 9-2.4 4.4-2.5 11.5 4.2 11.5 3.6 0 6.3-3 8.4-5.5 2.9-3.5 14.1-17.7 15.8-21 2.9-5.6.7-9.1-5.2-10.2">
        <title>cute_cheeks</title>
  </path>
  <path fill="none" stroke="black" stroke-width="1" d="M405.1 604.8c12.3-1.8 9.5 15.6 15.4 21.8 4 4.1 16.6 6 20 9.1 3.6 3.4 2.5 8.5-1.6 11-5.1 3.1-15.5 3.7-19 8.5-4 5.2-3.7 18.2-10 20.8-4 1.7-7.3-.3-9.1-4-2.8-5.7-2.7-14-8-18.3-2.6-2-9.4-3.8-12.8-5q-2.6-.9-4.9-2.4c-3.9-3-4-8.3 0-11.3 4.7-3.4 15-4 19.4-9.2 5.2-6.1 3.2-16.6 10.6-21m559 .2c12.3-3.6 10 16.6 16.3 22.3 2.7 2.4 11 4.7 14.6 6 6 2.2 10.2 8.2 3.9 12.9-4.3 3-14.9 3.7-19.2 9-4.4 5.3-4.3 17.5-9.8 20.6-3.6 2-7 .3-9-2.9-2.9-4-4.2-14.8-7.6-18.4-5.1-5.5-24.3-4.8-21.8-15.4 1.6-6.9 17-7.6 22-12.6 5.4-5.5 3.2-15.6 10.6-21.5">
        <title>cute_sparkle</title>
  </path>
  <path fill="none" stroke="black" stroke-width="1" d="M303.7 484.6c17-2.5 35 1.6 48.3 12.7a60.6 60.6 0 0 1-12 101 61 61 0 0 1-46 2.7c-34.2-11-49-50-35.1-82a60 60 0 0 1 44.8-34.4m556.3-.2c16.7-2.1 34 2 47 13a61 61 0 0 1 6.4 87.3 57 57 0 0 1-19.4 14 58 58 0 0 1-28 5.3c-39-.5-64.6-41-54-77a59 59 0 0 1 48-42.6M217.1 598l5 27c5.3 19 13.6 35.5 25.9 51 42.2 53 114 63.4 171 28.8 12.8-7.8 28-21.4 37.7-32.8l12.3-16c-1 12.6-7 28.8-12.8 40a128 128 0 0 1-77.2 65.6c-15.5 4.4-24.2 4.6-40 4.4a118 118 0 0 1-55-17.8c-39.6-24.6-61.3-65.9-66.9-111.2zm817.9 22h2l-2.3 22a173 173 0 0 1-9.1 37c-14.1 37.4-45 70-83.6 82-16.6 5.1-25 5.2-42 5-6.1 0-15-1.7-21-3.1-44.2-10.8-77.5-48.6-91.2-90.9-3.2-10-6.3-24.6-6.8-35-.2-4-1.4-8.1 0-12 2.8 8.8 5.2 17.7 9.4 26 15 30.2 41 54 72.6 66 13.3 5 23.6 6.4 37.5 7.4a129 129 0 0 0 121.8-68.4 108 108 0 0 0 12.7-36">
        <title>cute_eye</title>
  </path>
  <path fill="none" stroke="black" stroke-width="1" d="M314.7 323.5a83 83 0 0 1 41.3 8.3c6.4 3.2 13 7.3 13.8 15.2a15 15 0 0 1-14.2 16.5c-6 0-15.4-4.7-22.6-6.3a77 77 0 0 0-43 4.7q-19 8-34 22c-6.6 6.2-13.1 15.7-23 16-9.6.2-14.5-8.1-12.6-16.9 1.5-7 9.7-16.9 14.6-22a122 122 0 0 1 66-36zm610 .2c6-.9 8.6-.3 14.3 0 27.6 2.6 51 14.4 71 33.4 4.1 4 13.5 14.7 15.3 19.9 3.2 9-1.4 18.5-11 20.3-8.8 1.6-15.8-6.8-21.3-12.3a104 104 0 0 0-32-22.1 73 73 0 0 0-42.3-6c-9 1.5-20.5 8.2-28.7 5.4-10.8-3.7-11.1-17.7-3.8-25 9.6-9.4 25.8-12 38.5-13.6M219 509c4.6-11.9 24.8-31.5 35-39.4 45.2-34.5 108.5-42 159-14.3 45.6 25 71.2 75.7 78.1 125.7l1.9 19v21c-.4 40.9-14.5 86.2-40.5 118-36 44.2-98.9 60.5-152.5 42.6-20-6.6-39.2-18.5-54.5-32.9-35.1-32.9-54.3-84-54.5-131.7 0-9.7.1-24.7 2-34-15.2-2.7-29.8-4-41.8-15.5-8.4-7.9-6.3-21.5 4.8-24 7-1.5 14.6 4 21 6.4 9.9 3.8 11.2 2.2 18 4.1 1.1-3.8 6.4-17 5-19.8-1.1-2.4-7.3-5.9-9.7-7.8a50 50 0 0 1-17.8-24.4c-1.6-7.4 3.2-15.6 11-16.6 9-1.2 12.7 6 17.7 11.6s10.4 10.1 17.8 12m840 73 1.7 32.6c-.3 38.6-9.6 76.1-31.4 108.4A145 145 0 0 1 886 786.7a148 148 0 0 1-42-15 172 172 0 0 1-37-27.7 187 187 0 0 1-49-123v-17l1-12c4.5-51.3 29.4-100.7 73-129.6a140.6 140.6 0 0 1 178 17.6c8 8 17.8 19 23 29a40 40 0 0 0 16-11c5.1-5.6 8.3-13 17.4-12.6 10.8.7 13.8 10.6 10.8 19.6a53 53 0 0 1-28.2 28l6 20c8.7 0 12.9-.8 21-4.2 7-3 13-8.1 21-4.2 10 4.8 9.2 16.2 1.9 23.1A65 65 0 0 1 1059 582M524 787.7c2.3-.5 3.6-.8 6-.6 16.3 1.4 10.8 19.9 15 31.9a37 37 0 0 0 35 23c9.2-.2 18.3-3.9 25-10 6.3-5.9 11.4-15.4 21-15.3 10.4.2 13 9 20 14.8 12.1 10.1 26.1 13.8 41 7.3a35 35 0 0 0 20.6-24.7c2.6-10.7-1.4-28.5 16.4-27 11.2 1 13.1 9.5 13 18.9a64 64 0 0 1-38 59.6 70 70 0 0 1-52 0q-7-2.3-13-6.4c-2.1-1.4-5.5-4.5-8-4.6-2.6 0-5.8 2.9-8 4.3-3.6 2.3-11.8 6.3-15.8 8a71 71 0 0 1-55.2-4.2 63 63 0 0 1-32.1-49.7c-1.3-10.2-2.2-20.6 9.1-25.4m-256.3 4c8.3-1.2 13.3-.6 21.3 0 30.9 3.3 73.8 20 76 56.3.1 3.4-.5 6.7-1 10-6.3 35.4-51.3 51-83 51h-11c-31.8-.3-79.1-20-80-57a45 45 0 0 1 6-24c10.4-17.4 31.8-28.8 51-33.4zm704-.2c24.9-3.1 58.4 5.2 78.3 20.4a47.5 47.5 0 0 1 16.1 57.1 52 52 0 0 1-11.1 15c-21 21-50.7 25.3-79 25-32.8-.3-78.4-19.3-80.2-57-.4-6.8.7-12.8 3.5-19 2.4-5.2 6-10.8 9.9-15 15.8-16.9 40.3-23.7 62.5-26.5">
        <title>cute_base</title>
  </path>
  </g>
</svg>
