<?xml version='1.0' encoding='UTF-8'?>
<svg xmlns="http://www.w3.org/2000/svg" version="1.1" viewBox="0 0 120 120">
  <title>winky</title>
  <desc>GridJoy grouped face asset for winky</desc>
  <g transform="scale(0.095693779904)"><path fill="none" stroke="black" stroke-width="1" d="M699.7 876.6c24.2-2.4 55.7 5.3 74.2 21.3 4.8 4.1 17.8 16.3 15 23a65 65 0 0 1-9 11.1q-9.8 10.7-20.9 20a196 196 0 0 1-127.7 44.8A219 219 0 0 1 517 961.7l-22-16.3c-2.1-1.7-6.6-4.8-7.2-7.5-.8-3.4 3.7-9.2 5.6-11.9a88 88 0 0 1 26.6-24 124 124 0 0 1 104-9c2.8 1 9.5 4.3 12 4.1s5.8-2.6 8-3.8l14-6.7c16.4-6.7 24.5-8 41.7-10">
        <title>winky_tongue</title>
  </path>
  <path fill="none" stroke="black" stroke-width="1" d="M381 371.7c43 1 71 29.7 89.3 66.3a208 208 0 0 1 9 155c-15.4 43.4-51.4 74.4-98.7 73.7-44.2-.7-78.3-34.8-94-73.7a200 200 0 0 1 3-151c12.9-30.2 36-57.7 68.4-67.3 8-2.3 14.8-2.6 23-3m17 70.6c-61.1 9.3-80.6 90-57.4 139.7 12.6 26.9 37.6 51.3 69.6 47.4C472 622 492 539 467.8 488c-13.4-28-37.3-48.7-69.8-45.7m17 22.2c41.5-5.8 47.8 60.9 10 68-21.9 4.2-35.2-15.8-35-35.5a32 32 0 0 1 25-32.5">
        <title>winky_eye</title>
  </path>
  <path fill="none" stroke="black" stroke-width="1" d="M364.7 193.5c27-3.4 67.4 4.6 87.2 24 9.4 9.2 16.7 21.8 13.4 35.5q-1.4 6.9-7.3 10.8c-9.8 6-26.4-1.5-37-4a160 160 0 0 0-59-1.6c-31 4.5-60 17.8-86 34.9l-39 27.5c-11.9 6.6-23.6 4-23-11.6.6-15 16.5-39.2 26-50.4 24.7-29 55.3-49.3 92-59.7 10.9-3 21.6-4 32.7-5.4m487 51 13.3-.5c43.7.2 90.3 22.2 120 54 10.2 11 23.6 29.1 27 44 1.9 7.7 1.6 18-8 20-9.3 2-21.7-8.4-29-13.6a265 265 0 0 0-58-32.5 163 163 0 0 0-107-5.5c-6.7 1.9-13 4.3-20 1.7-10.3-3.8-11.9-16.8-9.2-26.1 1.1-4 3.9-8.6 6.2-12 14.3-20.2 41.6-26.7 64.7-29.5M379 342.7c30.4.7 56 10.6 78 32.3a167 167 0 0 1 28.3 40C514 468.2 518 537 499 594c-17.4 52.1-60.8 91.4-117.5 90.7-53.2-.7-95.2-39.3-114.3-86.7-8-19.7-15.2-48.8-15.2-70v-24c0-24.4 8-60.2 18.8-82 17.4-35.5 41.8-64.4 81.2-75.6 9.8-2.7 17-3.2 27-3.7m494.7 124.8 23.3-.5c36 .3 74.5 18.2 96.1 47 8.6 11.4 17.2 28.6 17.8 43 .5 12-6.4 22.3-18.9 15.2-10.2-5.8-17.6-15.2-41-25.9-36.8-16.8-77.7-17.1-116-5.9-20.3 6-41.1 17.3-58 30-6.1 4.6-17.8 15.6-26 13-6.5-1.9-6.4-9.9-5.8-15.4 1.3-12 11-27.2 17.8-37a157 157 0 0 1 90-60.1zM867 719c-4.8-2.8-18-8-20.6-10.5-5.8-6-3.3-16 12.2-18a62 62 0 0 1 62.8 48.2c1.1 6.3.5 15.8-7.4 17-7.4 1.2-11.9-6-16.2-10.7l-7.8-8c-.1 8.6-2.5 20.1-4 28.8-5 30-13.9 59-25.2 87.2a337 337 0 0 1-64 103 236 236 0 0 1-64.8 49.3c-19.4 9.7-43.5 18-65 20.7a236 236 0 0 1-62 .7C495.9 1012.1 418.9 927 381.6 828a392 392 0 0 1-19.6-71c-4.7 4.7-12.9 17.4-20 16-6.7-1.3-7.3-9-6.7-14.6a51 51 0 0 1 20.7-33.1c9.5-7 22.1-12 34-11.2 7.3.5 18.6 6 11.5 14.7-2.5 3-11.6 6.5-15.5 8.2 26.5 15 77.7 31.7 108 38.4 21.6 4.8 43 9 65 11.4 66.4 7 140.1 2 204-17.8a408 408 0 0 0 74-31.3z">
        <title>winky_base</title>
  </path>
  </g>
</svg>
