<?xml version="1.0" encoding="UTF-8"?>
<svg xmlns="http://www.w3.org/2000/svg" viewBox="0 0 1254 1254" width="400" height="400">
  <!-- Body outline reference (faint) -->
  <rect x="351" y="350" width="622" height="800" fill="none" stroke="rgba(100,100,200,0.2)" stroke-width="1"/>
  <!-- Converted face paths -->
  <path fill="none" stroke="black" stroke-width="1" d="M455.5 585.2c3.25-11.1 7.8-19.75 19-24.7 2.95-1.3 6.25-2.95 9.5-2.3-0.3 1.8-0.5 7.7 0.45 9.05 1.75 2.6 8.75 2.85 10.7 0.35 1.3-1.75 0.85-7.55 0.85-9.9a33 33 0 0 1 27.25 24c0.3 1 0.85 2.7 0 3.5-0.9 0.7-3.65 0.5-4.75 0.5-1.75 0-3.5-0.15-4.85 1.15-1.95 1.8-1.85 8.35 0 10.15s7.75 1.2 10.35 1.2a33 33 0 0 1-20 25.55c-2.8 1.2-5.1 1.7-8 2.45v-6.5c-0.15-7.5-9.3-5.35-10.85-3.85-2 1.85-1.5 6.85-1.15 9.35-3.7 1-8.3-1.15-11.5-3a34 34 0 0 1-17-24c2.4 0 8 0.35 9.95-0.75 2.8-1.6 2.9-9 0.4-10.9-2-1.6-6.6-0.3-10.35-1.35m275.5 0.5c0.3-13.5 14.85-26.95 28.1-28a22.5 22.5 0 0 0 0 9q0.7 1.25 1.9 2c2 1.05 7.6 0.75 9.05-1.2 1.4-1.75 0.95-7.5 0.95-9.8 11.5 2.3 19.85 7.75 25.1 18.5a24 24 0 0 1 2.9 9.5c-1.75-0.15-8.15-0.2-9.5 0.5-2.95 1.6-3.1 9.2-0.45 11.15 1.85 1.3 7.55 0.85 9.95 0.85a32.5 32.5 0 0 1-15.5 23.25c-4.8 2.9-7 3.1-12 4.75-0.7-2.4-0.5-3.55-0.5-6 0-1.65 0.05-3.1-1.15-4.3-1.8-1.9-8.3-2-10 0-1.8 2.1-0.5 7.05-1.35 10.3l-5.5-1.45a34.5 34.5 0 0 1-19.35-17.05c-1.75-3.5-2.1-5.9-3.15-9.5 2.5 0 8 0.5 9.95-0.85 2.75-1.95 3-9.4 0-11.15-1.45-0.8-7.5-0.5-9.45-0.5m-242-7.35c-5.05 0.8-9.05 2.95-11.25 7.85-4 9 3 19.75 13 18.85 13.95-1.2 17-19.15 5.75-25-2.2-1.15-5-1.75-7.5-1.7m274.5 0a14.5 14.5 0 0 0-8.65 4.45 13.5 13.5 0 0 0 17.15 20.35c11.85-7.5 6-25.6-8.5-24.8">
        <title>crosshair_eyes_center</title>
  </path>
  <path fill="none" stroke="black" stroke-width="1" d="M842.35 518c3.05 0 4.2 1.7 5.5 4.2 2 3.75 3.6 8.35 4.7 12.5 4.65 17.65 3.65 39.85-0.6 57.5a113 113 0 0 1-10.4 27.5c-3 5.45-7.35 12-11.6 16.5-14.5 15.55-31.25 23.5-51.95 27-4.5 0.8-8.95 1.5-13.5 1.5h-10.5c-3.7 0-8.35-0.7-12-1.3-15.3-2.55-28.8-8.4-38.75-20.7-10.8-13.3-15.8-34.75-16.1-51.65l0.4-6.85v-5.35l2.45-16.15c0.55-2.65 2.05-8.95 3.8-10.8 1.4-1.45 7-3 9.2-3.8l23.5-8.6 20.4-7.4 37.3-5.75z m-432.8 0.7c3.25-1.1 8.4 0.05 11.8 0.55l21.65 2.95 40.75 6.15 25.3 4.1 20 7.5 22.5 8.25c2.8 0.95 8.3 2.25 9.95 4.55 1.5 2.2 2.9 8.2 3.45 10.95 1.65 8.25 2.65 18.6 2.6 27l-0.5 6c-1.3 23.75-10.5 48.85-33 60.1-10 5-23.85 7.8-35 7.9h-11c-6-0.05-17.1-2.25-23-3.95q-12.75-3.6-24-10.65c-25.35-16-38.1-45.75-41.35-74.6l-0.7-19.3c0.05-7.7 2.5-21.4 5.3-28.5 1.3-3.25 2.4-6.8 5.25-9m361.45 25.5c0-2.1 0.4-7.25-0.85-8.8-1.85-2.15-9.05-2-10.7 0.4-1.4 1.9-1.05 5.7-0.45 7.9-4.6 1.25-6.5 1.1-11.5 3a45.5 45.5 0 0 0-28.5 31l-1.65 6.45c-1.6 2.7-5.5 0.85-7.8 1.85-2.35 1-2.1 4.55-2 6.7 0 1.1 0 3 0.6 3.95 1.4 2.25 6.9 1.55 9.35 1.55a45.8 45.8 0 0 0 41 41c0.1 2.3-0.35 6.6 0.75 8.4 1.55 2.65 9 2.75 10.9 0.4 1.95-2.45-0.5-6.9 2.3-8.6l9.05-2.35a50.5 50.5 0 0 0 17-10.35 45.5 45.5 0 0 0 11-17l3-10.35c2.05-2.85 8.7 1.15 9.8-4.6v-2.8c0-2.15 0-5-2.35-5.95-2.3-0.95-6.35 0.8-7.65-1.85l-1.3-5.45c-0.6-2.5-2.1-6.75-3.25-9a47 47 0 0 0-36.8-25.5m-275 0c0-2.05 0.4-7.25-0.85-8.8-1.75-2-9.15-1.7-10.75 0.35-1.15 1.45-0.85 6.2-0.4 7.95l-10.5 2.7a46 46 0 0 0-29.65 31.8l-1.55 5.95c-1.5 2.7-5.35 0.85-7.75 1.85-2.55 1.05-2.1 4.9-2.05 7.2 0.1 6 3.05 5 10 5a47 47 0 0 0 23 35.35c8.25 4.5 10.25 4 18.5 6.15-0.5 1.9-0.75 6.7 0.5 8.3 1.75 2.2 8.9 2.2 10.65 0 1.25-1.6 0.85-6.65 0.85-8.8 17.7-1 33.15-14 38.85-30.5 1.2-3.5 2.05-6.8 2.15-10.5 6.95 0 9.9 1 10-5 0-2.1 0.5-5.75-1.55-7-2.35-1.35-6.75 0.8-8.15-2.05l-1.5-6.45a46.1 46.1 0 0 0-39.8-33.5">
        <title>crosshair_eyes_outer</title>
  </path>
  <path fill="none" stroke="black" stroke-width="1" d="M467.5 509.7l-14.5-6.65-34.5-15.5-24-10.95c-6.3-2.9-11.75-4.95-16-10.9-10.05-14.3-1.75-36.8 17-37 8.65-0.1 14.4 3.3 22 7l26 12.9 43.5 23.65 69 37.8c11.2 5.8 23.5 11.4 35.5 15.15 4.7 1.5 14.35 3.3 16.9 7.5 2.7 4.5 0.85 9.6-1.9 13.5a25.5 25.5 0 0 1-20.55 10.4l-6.95-0.4c2.2 7.65 3.7 21.1 3.85 29.1v7.8c0 4.2-0.6 8.45-1.2 12.6-2.85 18.65-9 38.25-22.7 52-11.25 11.25-25.5 17.4-40.95 20.5-27.55 5.5-59.3 0.85-83.5-13.75-25.8-15.5-39.55-39.75-46.7-68.25a138 138 0 0 1-4.3-31v-9.5c0.1-11.5 3.35-30.1 9-40-3.4-0.3-7.35-0.65-9.6-3.6-3.6-4.75-0.45-12.1 5.6-12.5l22 2.5 38.5 5.15z m208 46.4c-5.2 0.45-7.15 1-12.5 0-8.15-1.75-17.4-9.1-18-17.9-0.4-7.3 4.7-9 10.5-10.85 15.8-4.95 24-7.75 39-15.3 23.95-11.95 47.15-25.35 70.5-38.4l40.5-22.1 32-16c7.65-3.5 12.25-6.95 21-6.85 19 0.2 28.2 22.2 17.6 37-4.25 5.95-9.3 7.75-15.6 10.65l-25.5 11.65-35.5 16-13.5 6.2 42-6.05 25.15-3.35c3.5-0.35 12.45-1.75 15.35-0.75q2.05 0.8 3.35 2.7 1.5 2.25 1.25 4.95c-0.5 6.4-5.3 7.45-10.6 8l2.35 6a111 111 0 0 1 5.45 23.3l1 15.7-0.3 4.5c-1.2 34.05-13 70.1-40.5 92a96 96 0 0 1-22 13.3 129.5 129.5 0 0 1-49 10l-7-0.3-10-0.95c-19.45-2.7-37.5-10.25-50.35-25.55-10.75-12.75-17.2-32.1-19.2-48.5l-1.25-15.5 0.3-5.5v-2.5c0.1-8.7 2.2-17 3.5-25.6m-276.5 103.9c8.5-1.7 12.5 5.25 9.5 11.2-1.05 2.2-5.5 5.9-7.5 7.65l-10.1 9.6c-1.9 1.7-3.35 3.35-5.9 4.15-6.55 2-12.1-4.75-9.3-10.9 1.5-3.25 4.8-5.7 7.4-8.15 4-3.8 11.05-11.7 15.9-13.5m451.5 0c6-1.05 7.85 1.4 12 5l11.5 10.7c2.45 2.4 5.25 4.9 5.6 8.5 0.4 4.05-2.1 7.5-6 8.55-3.6 0.95-6.75-1.25-9.25-3.5l-12.85-12.1c-1.6-1.5-4.75-4.15-5.6-6-2.25-4.6-0.25-9.5 4.6-11.2m-427 21.05c6.1 0.4 9.95 5.35 7.4 11.15-1.1 2.5-4 5.45-5.8 7.5l-11.7 13c-2.35 2.6-4.75 5.3-8.5 5.4-4.25 0.15-7.6-2.55-8-6.9-0.35-3.9 1.85-6.25 4.25-9l13.3-15c3.1-3.3 4.15-5.65 9.05-6.15m405 0.45c6.5-1.15 8.25 1.85 12.25 6.35l9.25 10.35c1.75 1.9 6.05 6.4 7 8.5 2.65 5.5-1.35 11.75-7.3 11.35-4.35-0.3-6.4-3.05-9.05-6.05l-11.15-12.6c-1.8-2.05-4.4-4.3-5.5-6.7-2.25-4.7-0.5-9.5 4.5-11.2m-211.65 22l18.15-0.3 5.5 0.45a176.5 176.5 0 0 1 36.5 6.6c2.75 0.8 5.85 1.7 7.65 4.1 3.25 4.35 1.35 10.95-4.15 12.3-3.75 1-8.7-1.2-12.35-2.3l-17.15-3.45c-16.85-2.6-36.5-2-53.3 1.1l-15.2 3.55c-4 1.15-7.8 2.6-11.45-0.5q-2.2-2-2.5-4.85c-0.55-5 2.5-7.8 6.95-9.3 8.9-3 21.35-5.5 30.7-6.5z">
        <title>crosshair_eyes_base</title>
  </path>
</svg>