<?xml version="1.0" encoding="UTF-8"?>
<svg xmlns="http://www.w3.org/2000/svg" viewBox="0 0 1254 1254" width="400" height="400">
  <!-- Body outline reference (faint) -->
  <rect x="351" y="350" width="622" height="800" fill="none" stroke="rgba(100,100,200,0.2)" stroke-width="1"/>
  <!-- Converted face paths -->
  <path fill="none" stroke="black" stroke-width="1" d="M618 699.7l-1.5 18.5c0 9.6 0.5 16.5 2.3 26a50 50 0 0 0 3.1 10.5c0.75 1.3 1.95 2.75 3.6 2.65 3.25-0.2 3.35-3.85 3.05-6.25l-2.05-20.9 0.9-22c0.2-1.6 0.65-6.65 1.55-7.7 1.25-1.4 8-1.25 10-1.5a196.5 196.5 0 0 0 28.05-4.75c1.55-0.4 7.9-2.5 8.95-2.3 0.85 0.15 1.25 0.55 1.65 1.3l4.5 16.95c4.45 18 7.6 42.05-1.8 59a44.5 44.5 0 0 1-14.8 16.25c-17.25 11.5-44.2 11.8-62.5 2.6-4.05-2-8.75-5.55-12.05-8.7-16.1-15.4-19.35-43-16.6-64.2l2.65-14.95c0.3-1.2 0.85-4.3 1.8-5 0.85-0.6 2.2-0.25 3.15 0l7.5 1.5c9 1.5 19.4 2.95 28.5 3">
        <title>tongue_out_tongue</title>
  </path>
  <path fill="none" stroke="black" stroke-width="1" d="M515.5 600.2c-11.5 2.15-25.75 6.65-37.15 6.85a33 33 0 0 1-27.6-12.85c-8.7-11.05-13.25-32-13.25-46v-7c0-6.7 1.15-14.25 2.5-20.8 5.35-24.7 20.05-51.65 46-59a47.5 47.5 0 0 1 14.5-1.7c20.4 0.25 36.5 13.5 47 30 2.2 3.5 4.65 8.15 6.2 12 0.75 1.8 1.8 3.55 1.3 5.5a43 43 0 0 0-21-17.1c-24.5-9.35-46.25 10.35-53.75 32.6-7.3 21.8-2.5 49.8 14.5 66 3.7 3.5 8 6.5 12.75 8.55z m183.5-93.5c2.95-10.9 12.45-24.25 20.5-32a54.5 54.5 0 0 1 36.3-14.85c38.7 0.5 58.65 42 60.75 75.85l0.45 6c0.1 15.1-2.05 31.4-8.85 45-4.5 8.95-11.25 16.2-21.15 18.9a45.5 45.5 0 0 1-9.65 1.45c-8.75 0.1-19.3-2.4-27.85-4.4-2.95-0.7-8.65-1.5-11-2.95 25-5.05 39.1-32.55 38.65-56.45-0.2-8.55-1.7-16.6-4.95-24.55-6.5-16.15-21-30.1-39.2-30.5a40.5 40.5 0 0 0-27 11.15z m-174.65-7.6c2.65-0.5 4.5-0.5 7.15 0 19.7 4.45 20.4 36-0.5 40.6-12.45 2.7-22.35-8.55-22.35-20.4 0-10.1 6-17.75 15.7-20.2m208.5 0.4c22.2-1.1 27.65 33 7.15 40.5a20.5 20.5 0 0 1-7.5 1.2c-10.25-0.5-17.4-10.35-17.5-20-0.15-11.6 6.05-20.15 17.85-21.7">
        <title>tongue_out_eye</title>
  </path>
  <path fill="none" stroke="black" stroke-width="1" d="M498 364.9c15.2-1.85 36.7 4.5 48 14.9 3 2.75 5.7 6.65 5.35 10.9-0.6 7-5.5 10.75-12.35 10.5l-17.7-3.65c-11.85-1.6-25.75 0.35-36.8 4.75a111 111 0 0 0-25.5 14.65c-4.3 3.2-9 8.6-14.5 9.15-6.9 0.65-11.45-5.45-11-11.9 0.4-4.8 6.65-15.1 9.6-19a77 77 0 0 1 37.9-27c5.9-1.85 10.95-2.4 17-3.3m249.35 0.05l6.15-0.25c21.1 0.2 42.85 11 55.9 27.5 4.15 5.25 10.25 14.8 11.2 21.5 0.85 5.95-2.5 11.2-8.6 12.25-6.4 1.15-11-4.65-15.5-8.25a103 103 0 0 0-28-16.1 75 75 0 0 0-35.5-3.85c-6.35 0.8-16.45 4.9-22 2.65-5.95-2.4-8-9.6-5.4-15.2 0.9-2 2.35-3.5 3.9-5 10.1-9.75 24.35-13.6 37.85-15.25m-254 81l6.15-0.25c21.75 0 41.7 12.5 54.55 29.5 19 25.1 24.85 58.65 20.4 89.35-1.6 11.15-5.45 25.4-12 34.65-7.5 10.6-16.9 9.6-28.15 11.35-19.85 3.1-39 10.35-59.3 10.15-3.65 0-8-0.75-11.5-1.7-24.7-7-34.6-31.7-38.2-54.8a114.5 114.5 0 0 1-1.65-17.35c-0.05-37.35 15.3-82 52.85-96.9 6.15-2.5 10.4-3.2 16.85-4m259.5 0c6.15-0.6 16.3 1.15 22.15 3.1 30.55 10 48.9 42.35 53.8 72.65a153.5 153.5 0 0 1 1.7 27.5c0 23.7-9.25 55.6-32 66.8a52.5 52.5 0 0 1-24.5 4.7c-6.75-0.05-14.9-1.8-21.5-3.3l-32.3-6.8c-10.4-1.65-19.35-0.65-26.9-9.55-4.35-5.15-6.85-11.55-9-17.85-4.9-14.8-5.95-26.5-5.8-42 0.3-32.45 16.7-70.75 46-86.85 10.45-5.7 16.8-7 28.35-8.4m-333.35 183.65c4.9 0.25 7.65 3.85 6.1 8.6-0.55 1.6-1.8 3.2-2.8 4.5-2.55 3.25-7.5 9.3-11.9 9.4-4.6 0.1-7.2-4.25-5.65-8.4 1.85-5 8.8-13.35 14.25-14.1m390.35-0.05c5.35-0.5 8.85 3.45 6.85 8.65-1.55 4.2-9.25 12.75-13.7 13.75-5.1 1.15-8-3.75-6.6-8.25 1.3-4.4 9-12.85 13.5-14.15m-363.9 4.45c5.3-0.5 8.6 3.6 7 8.7-1.15 3.7-7.95 11.45-11 13.8a8.5 8.5 0 0 1-6 2c-4.9-0.65-6-5.25-4.35-9.3 2.15-5 9.05-13.65 14.35-15.2m391.5 0c5.1-0.6 8.5 3.9 6.85 8.7a19 19 0 0 1-3 5c-2.55 3.4-8 9.9-12.35 10.7-4.25 0.8-8.25-3.2-6.2-8.7 1.35-3.75 8-11.9 11.2-14.2 1.25-0.85 2.05-1.1 3.5-1.5m-116 19.2c-2.4-0.5-5.55-1.15-7.2-3.1-2.8-3.5-1-8.75 3.2-10.05 3.1-1 7.15 0.35 10 1.6a30 30 0 0 1 16 16.05c0.95 2.35 2 5.5 1.45 8-1.2 5.15-6.7 6.95-10.4 3.8-1.75-1.5-2.95-5.05-3.55-7.3-3.2 2.3-5.3 5.65-8 8.5-6.8 7.15-11.1 11.7-19 17.9l-8 5.75c-1.05 0.75-2.7 1.65-3.05 2.95s1.35 6.25 1.75 7.9l3.75 19c2.7 19.25 2.3 38.5-8.65 55.5q-5 7.5-11.8 13.4a66 66 0 0 1-28 13.2c-26.5 5.5-57.1-1.2-74.05-23.6-11.4-15.05-16.1-35.7-15.85-54.35 0.1-7.15 1.5-21.45 3.4-28.15-9.4-4.05-23.65-15.3-31-22.5l-12-12.5c-0.85 2.15-2 6.3-3.6 7.7-4.05 3.35-9.7 1-10.55-4.05-0.5-2.8 1.3-7.15 2.5-9.65a30 30 0 0 1 19.15-15.9c1.6-0.35 3.35-0.7 5-0.45 4.75 0.8 7.3 6.4 4.2 10.25-1.6 1.95-4.35 2.65-6.7 3.1v1l13 8.3a156.75 156.75 0 0 0 71.5 20.2l7 0.45c20.05 0 37-3 56-9.35 13.95-4.65 32.7-13.75 43.5-23.65">
        <title>tongue_out_base</title>
  </path>
</svg>